<?xml version="1.0" standalone="no"?><!DOCTYPE svg PUBLIC "-//W3C//DTD SVG 1.1//EN" "http://www.w3.org/Graphics/SVG/1.1/DTD/svg11.dtd"><svg t="1598706904278" class="icon" viewBox="0 0 1024 1024" version="1.1" xmlns="http://www.w3.org/2000/svg" p-id="9606" width="32" height="32" xmlns:xlink="http://www.w3.org/1999/xlink"><defs><style type="text/css"></style></defs><path d="M501.105778 567.495111c0 0.398222 0.170667 0.568889 0.199111 0.881778 32.967111 73.159111 79.928889 134.286222 138.695111 177.066667a207.075556 207.075556 0 0 0 101.632-31.402667l-52.423111-117.219556-27.847111 12.003556a28.359111 28.359111 0 0 1-11.434667 2.446222c-8.96 0-17.038222-4.437333-20.48-12.174222l-65.223111-145.948445c-5.006222-10.894222 1.479111-24.177778 14.193778-29.752888l27.761778-11.889778-52.252445-117.219556a202.069333 202.069333 0 0 0-73.216 35.868445 190.208 190.208 0 0 0-19.057778 16.554666c-7.651556 71.480889 6.456889 146.773333 39.025778 220.245334 0.170667 0.199111 0.256 0.256 0.426667 0.540444zM915.569778 69.347556H191.374222c-23.210667 0-42.012444 18.460444-42.012444 41.301333v177.891555H117.475556c-23.210667 0-41.955556 18.460444-41.955556 41.301334s18.744889 41.301333 41.955556 41.301333h31.914666v102.883556H117.475556c-23.210667 0-41.955556 18.460444-41.955556 41.301333s18.716444 41.329778 41.955556 41.329778h31.914666v102.769778H117.475556c-23.210667 0-41.955556 18.488889-41.955556 41.329777s18.744889 41.272889 41.955556 41.272889h31.914666v168.391111c0 22.840889 18.773333 41.329778 42.012445 41.329778h724.167111c23.267556 0 42.012444-18.488889 42.012444-41.329778V110.648889a41.614222 41.614222 0 0 0-42.012444-41.301333z m-13.511111 828.273777H204.885333v-155.562666h60.416c23.182222 0 42.012444-18.432 42.012445-41.272889s-18.773333-41.329778-42.012445-41.329778H204.885333V556.657778h60.416c23.182222 0 42.012444-18.488889 42.012445-41.329778s-18.773333-41.301333-42.012445-41.301333H204.885333v-102.883556h60.416c23.182222 0 42.012444-18.488889 42.012445-41.301333 0-22.840889-18.773333-41.301333-42.012445-41.301334H204.885333V123.477333h697.173334v774.144z" p-id="9607" fill="#999999"></path></svg>