<?xml version="1.0" standalone="no"?><!DOCTYPE svg PUBLIC "-//W3C//DTD SVG 1.1//EN" "http://www.w3.org/Graphics/SVG/1.1/DTD/svg11.dtd"><svg t="1598718314747" class="icon" viewBox="0 0 1024 1024" version="1.1" xmlns="http://www.w3.org/2000/svg" p-id="11443" width="32" height="32" xmlns:xlink="http://www.w3.org/1999/xlink"><defs><style type="text/css"></style></defs><path d="M178.3808 514.56A343.2448 343.2448 0 0 1 279.04 279.1936a342.2208 342.2208 0 0 1 243.3024-100.8128 341.4016 341.4016 0 0 1 243.0976 100.864c9.9328 9.8816 19.2 20.4288 27.8016 31.3856l-60.2112 47.0016a7.9872 7.9872 0 0 0 3.0208 14.1312l175.7184 43.008A8.0384 8.0384 0 0 0 921.6 407.04l0.8192-180.9408c0-6.656-7.68-10.496-12.9024-6.2976l-56.4224 44.0832A419.8912 419.8912 0 0 0 102.4 514.2016a7.9872 7.9872 0 0 0 7.9872 8.192h60.0064a7.9872 7.9872 0 0 0 7.9872-7.7824z m756.0192 7.8336h-60.0064a7.9872 7.9872 0 0 0-7.9872 7.7824 342.1696 342.1696 0 0 1-100.608 235.4176 342.4256 342.4256 0 0 1-243.3024 100.8128 342.2208 342.2208 0 0 1-271.0016-132.1984l60.2112-47.0016a7.9872 7.9872 0 0 0-3.0208-14.1312l-175.6672-43.008a8.0384 8.0384 0 0 0-9.9328 7.7312l-0.6656 180.992c0 6.7072 7.68 10.496 12.9024 6.2976l56.3712-44.0832a419.8912 419.8912 0 0 0 750.6944-250.368 7.9872 7.9872 0 0 0-7.9872-8.192z" fill="#999999" p-id="11444"></path></svg>